<svg width="18" height="18" viewBox="0 0 18 18" fill="none" xmlns="http://www.w3.org/2000/svg">
<path d="M6 17.75H3C2.65324 17.7648 2.30697 17.711 1.98101 17.5918C1.65505 17.4726 1.3558 17.2902 1.10038 17.0552C0.844953 16.8203 0.638372 16.5372 0.492455 16.2223C0.346538 15.9074 0.264148 15.5668 0.25 15.22V2.78C0.264148 2.43322 0.346538 2.09262 0.492455 1.77771C0.638372 1.4628 0.844953 1.17975 1.10038 0.944762C1.3558 0.709772 1.65505 0.527454 1.98101 0.40824C2.30697 0.289025 2.65324 0.235255 3 0.250005H6C6.19891 0.250005 6.38968 0.329022 6.53033 0.469675C6.67098 0.610327 6.75 0.801092 6.75 1C6.75 1.19892 6.67098 1.38968 6.53033 1.53033C6.38968 1.67099 6.19891 1.75 6 1.75H3C2.70307 1.72419 2.4076 1.81365 2.17487 1.99984C1.94213 2.18602 1.78999 2.45465 1.75 2.75V15.22C1.78999 15.5154 1.94213 15.784 2.17487 15.9702C2.4076 16.1564 2.70307 16.2458 3 16.22H6C6.19891 16.22 6.38968 16.299 6.53033 16.4397C6.67098 16.5803 6.75 16.7711 6.75 16.97C6.75 17.1689 6.67098 17.3597 6.53033 17.5003C6.38968 17.641 6.19891 17.72 6 17.72V17.75Z" fill="#1E293B"/>
<path d="M13 13.75C12.9014 13.7505 12.8038 13.7312 12.7128 13.6935C12.6218 13.6557 12.5392 13.6001 12.47 13.53C12.3295 13.3894 12.2506 13.1988 12.2506 13C12.2506 12.8013 12.3295 12.6106 12.47 12.47L15.94 9L12.47 5.53C12.3963 5.46134 12.3372 5.37854 12.2962 5.28654C12.2552 5.19454 12.2332 5.09523 12.2314 4.99452C12.2296 4.89382 12.2481 4.79379 12.2858 4.7004C12.3236 4.60701 12.3797 4.52218 12.4509 4.45096C12.5222 4.37974 12.607 4.3236 12.7004 4.28588C12.7938 4.24816 12.8938 4.22963 12.9945 4.23141C13.0952 4.23319 13.1945 4.25523 13.2865 4.29622C13.3785 4.33721 13.4613 4.39631 13.53 4.47L17.53 8.47C17.6704 8.61063 17.7493 8.80125 17.7493 9C17.7493 9.19875 17.6704 9.38938 17.53 9.53L13.53 13.53C13.4607 13.6001 13.3782 13.6557 13.2872 13.6935C13.1962 13.7312 13.0985 13.7505 13 13.75Z" fill="#1E293B"/>
<path d="M17 9.75H6C5.80109 9.75 5.61032 9.67098 5.46967 9.53033C5.32902 9.38968 5.25 9.19891 5.25 9C5.25 8.80109 5.32902 8.61032 5.46967 8.46967C5.61032 8.32902 5.80109 8.25 6 8.25H17C17.1989 8.25 17.3897 8.32902 17.5303 8.46967C17.671 8.61032 17.75 8.80109 17.75 9C17.75 9.19891 17.671 9.38968 17.5303 9.53033C17.3897 9.67098 17.1989 9.75 17 9.75Z" fill="#1E293B"/>
</svg>
